<svg xmlns="http://www.w3.org/2000/svg" width="400" height="400" viewBox="0 0 400 400">
  <defs>
    <linearGradient id="bg" x1="0" y1="1" x2="0" y2="0">
      <stop offset="0" stop-color="#4ADE80"/>
      <stop offset="1" stop-color="#16A34A"/>
    </linearGradient>
    <filter id="shadow">
      <feDropShadow dx="0" dy="6" stdDeviation="10" flood-color="#00000020"/>
    </filter>
  </defs>
  <rect width="400" height="400" rx="72" fill="url(#bg)"/>
  <g filter="url(#shadow)">
    <path d="M200 60c66 0 120 54 120 120l0 100c0 25-15 40-40 40-25 0-25-30-40-30-15 0-15 30-40 30-25 0-25-30-40-30-15 0-15 30-40 30-25 0-40-15-40-40l0-100c0-66 54-120 120-120z" fill="#fff"/>
  </g>
  <path d="M135 235l65-30 65 30z" fill="#16A34A"/>
  <rect x="135" y="235" width="130" height="55" rx="0" ry="0" fill="#22C55E"/>
  <rect x="135" y="282" width="130" height="8" rx="8" ry="8" fill="#22C55E"/>
  <path d="M140 238l60 26 60-26" fill="none" stroke="#15803D" stroke-width="2.5" stroke-linecap="round" stroke-linejoin="round"/>
  <ellipse cx="164" cy="150" rx="12" ry="15" fill="#1E293B"/>
  <ellipse cx="236" cy="150" rx="12" ry="15" fill="#1E293B"/>
  <ellipse cx="163.5" cy="147" rx="4.5" ry="4.5" fill="#fff"/>
  <ellipse cx="235.5" cy="147" rx="4.5" ry="4.5" fill="#fff"/>
  <ellipse cx="147" cy="184" rx="14" ry="7" fill="#FCA5A5" opacity="0.35"/>
  <ellipse cx="253" cy="184" rx="14" ry="7" fill="#FCA5A5" opacity="0.35"/>
  <path d="M190 190q10 6 20 0" fill="none" stroke="#64748B" stroke-width="2" stroke-linecap="round"/>
</svg>
